<mxfile host="app.diagrams.net" modified="2024-02-03T14:51:07.203Z" agent="Mozilla/5.0 (Macintosh; Intel Mac OS X 10_15_7) AppleWebKit/537.36 (KHTML, like Gecko) Chrome/120.0.0.0 Safari/537.36" etag="B2PlpjKJPyZr4aTgd6CW" version="23.1.1" type="device">
  <diagram name="Page-1" id="kTpoDuLGaVUzEa_yPda3">
    <mxGraphModel dx="1366" dy="863" grid="1" gridSize="10" guides="1" tooltips="1" connect="1" arrows="1" fold="1" page="1" pageScale="1" pageWidth="827" pageHeight="1169" math="0" shadow="0">
      <root>
        <mxCell id="0" />
        <mxCell id="1" parent="0" />
        <mxCell id="-YGaoJcy0KL_er-XXw0R-1" value="" style="rounded=0;whiteSpace=wrap;html=1;" parent="1" vertex="1">
          <mxGeometry x="195" y="150" width="50" height="20" as="geometry" />
        </mxCell>
        <mxCell id="-YGaoJcy0KL_er-XXw0R-2" value="keys" style="text;html=1;strokeColor=none;fillColor=none;align=center;verticalAlign=middle;whiteSpace=wrap;rounded=0;" parent="1" vertex="1">
          <mxGeometry x="190" y="145" width="60" height="30" as="geometry" />
        </mxCell>
        <mxCell id="-YGaoJcy0KL_er-XXw0R-3" value="" style="rounded=0;whiteSpace=wrap;html=1;" parent="1" vertex="1">
          <mxGeometry x="85" y="210" width="50" height="20" as="geometry" />
        </mxCell>
        <mxCell id="-YGaoJcy0KL_er-XXw0R-4" value="keys" style="text;html=1;strokeColor=none;fillColor=none;align=center;verticalAlign=middle;whiteSpace=wrap;rounded=0;" parent="1" vertex="1">
          <mxGeometry x="80" y="205" width="60" height="30" as="geometry" />
        </mxCell>
        <mxCell id="-YGaoJcy0KL_er-XXw0R-5" value="" style="rounded=0;whiteSpace=wrap;html=1;" parent="1" vertex="1">
          <mxGeometry x="295" y="261" width="50" height="20" as="geometry" />
        </mxCell>
        <mxCell id="-YGaoJcy0KL_er-XXw0R-6" value="keys" style="text;html=1;strokeColor=none;fillColor=none;align=center;verticalAlign=middle;whiteSpace=wrap;rounded=0;" parent="1" vertex="1">
          <mxGeometry x="290" y="256" width="60" height="30" as="geometry" />
        </mxCell>
        <mxCell id="-YGaoJcy0KL_er-XXw0R-7" value="" style="rounded=0;whiteSpace=wrap;html=1;" parent="1" vertex="1">
          <mxGeometry x="195" y="230" width="50" height="20" as="geometry" />
        </mxCell>
        <mxCell id="-YGaoJcy0KL_er-XXw0R-8" value="keys" style="text;html=1;strokeColor=none;fillColor=none;align=center;verticalAlign=middle;whiteSpace=wrap;rounded=0;" parent="1" vertex="1">
          <mxGeometry x="190" y="225" width="60" height="30" as="geometry" />
        </mxCell>
        <mxCell id="-YGaoJcy0KL_er-XXw0R-9" value="" style="rounded=0;whiteSpace=wrap;html=1;" parent="1" vertex="1">
          <mxGeometry x="15" y="273" width="50" height="20" as="geometry" />
        </mxCell>
        <mxCell id="-YGaoJcy0KL_er-XXw0R-10" value="values" style="text;html=1;strokeColor=none;fillColor=none;align=center;verticalAlign=middle;whiteSpace=wrap;rounded=0;" parent="1" vertex="1">
          <mxGeometry x="10" y="268" width="60" height="30" as="geometry" />
        </mxCell>
        <mxCell id="-YGaoJcy0KL_er-XXw0R-11" value="" style="rounded=0;whiteSpace=wrap;html=1;" parent="1" vertex="1">
          <mxGeometry x="145" y="285" width="50" height="20" as="geometry" />
        </mxCell>
        <mxCell id="-YGaoJcy0KL_er-XXw0R-12" value="values" style="text;html=1;strokeColor=none;fillColor=none;align=center;verticalAlign=middle;whiteSpace=wrap;rounded=0;" parent="1" vertex="1">
          <mxGeometry x="140" y="280" width="60" height="30" as="geometry" />
        </mxCell>
        <mxCell id="-YGaoJcy0KL_er-XXw0R-13" value="" style="rounded=0;whiteSpace=wrap;html=1;" parent="1" vertex="1">
          <mxGeometry x="250" y="295" width="50" height="20" as="geometry" />
        </mxCell>
        <mxCell id="-YGaoJcy0KL_er-XXw0R-14" value="values" style="text;html=1;strokeColor=none;fillColor=none;align=center;verticalAlign=middle;whiteSpace=wrap;rounded=0;" parent="1" vertex="1">
          <mxGeometry x="245" y="290" width="60" height="30" as="geometry" />
        </mxCell>
        <mxCell id="-YGaoJcy0KL_er-XXw0R-15" value="" style="endArrow=classic;html=1;rounded=0;entryX=0.5;entryY=0;entryDx=0;entryDy=0;exitX=0;exitY=0.75;exitDx=0;exitDy=0;" parent="1" source="-YGaoJcy0KL_er-XXw0R-2" target="-YGaoJcy0KL_er-XXw0R-4" edge="1">
          <mxGeometry width="50" height="50" relative="1" as="geometry">
            <mxPoint x="200" y="175" as="sourcePoint" />
            <mxPoint x="440" y="455" as="targetPoint" />
          </mxGeometry>
        </mxCell>
        <mxCell id="-YGaoJcy0KL_er-XXw0R-16" value="" style="endArrow=classic;html=1;rounded=0;exitX=0.5;exitY=1;exitDx=0;exitDy=0;entryX=0.5;entryY=0;entryDx=0;entryDy=0;" parent="1" source="-YGaoJcy0KL_er-XXw0R-2" target="-YGaoJcy0KL_er-XXw0R-8" edge="1">
          <mxGeometry width="50" height="50" relative="1" as="geometry">
            <mxPoint x="260" y="355" as="sourcePoint" />
            <mxPoint x="310" y="305" as="targetPoint" />
          </mxGeometry>
        </mxCell>
        <mxCell id="-YGaoJcy0KL_er-XXw0R-17" value="" style="endArrow=classic;html=1;rounded=0;exitX=1;exitY=0.75;exitDx=0;exitDy=0;entryX=0.5;entryY=0;entryDx=0;entryDy=0;" parent="1" source="-YGaoJcy0KL_er-XXw0R-2" target="-YGaoJcy0KL_er-XXw0R-6" edge="1">
          <mxGeometry width="50" height="50" relative="1" as="geometry">
            <mxPoint x="260" y="355" as="sourcePoint" />
            <mxPoint x="310" y="305" as="targetPoint" />
          </mxGeometry>
        </mxCell>
        <mxCell id="-YGaoJcy0KL_er-XXw0R-18" value="" style="endArrow=classic;html=1;rounded=0;exitX=0;exitY=1;exitDx=0;exitDy=0;entryX=0.5;entryY=0;entryDx=0;entryDy=0;" parent="1" source="-YGaoJcy0KL_er-XXw0R-4" target="-YGaoJcy0KL_er-XXw0R-10" edge="1">
          <mxGeometry width="50" height="50" relative="1" as="geometry">
            <mxPoint x="260" y="355" as="sourcePoint" />
            <mxPoint x="310" y="305" as="targetPoint" />
          </mxGeometry>
        </mxCell>
        <mxCell id="-YGaoJcy0KL_er-XXw0R-19" value="" style="endArrow=classic;html=1;rounded=0;exitX=0.25;exitY=1;exitDx=0;exitDy=0;entryX=0.5;entryY=0;entryDx=0;entryDy=0;" parent="1" source="-YGaoJcy0KL_er-XXw0R-8" target="-YGaoJcy0KL_er-XXw0R-12" edge="1">
          <mxGeometry width="50" height="50" relative="1" as="geometry">
            <mxPoint x="190" y="262.4999999999998" as="sourcePoint" />
            <mxPoint x="310" y="320" as="targetPoint" />
          </mxGeometry>
        </mxCell>
        <mxCell id="-YGaoJcy0KL_er-XXw0R-20" value="" style="endArrow=classic;html=1;rounded=0;entryX=0.5;entryY=0;entryDx=0;entryDy=0;" parent="1" source="-YGaoJcy0KL_er-XXw0R-8" target="-YGaoJcy0KL_er-XXw0R-14" edge="1">
          <mxGeometry width="50" height="50" relative="1" as="geometry">
            <mxPoint x="250" y="262.4999999999998" as="sourcePoint" />
            <mxPoint x="310" y="320" as="targetPoint" />
          </mxGeometry>
        </mxCell>
        <mxCell id="-YGaoJcy0KL_er-XXw0R-21" value="" style="endArrow=classic;startArrow=classic;html=1;rounded=0;exitX=1;exitY=0.5;exitDx=0;exitDy=0;entryX=0;entryY=0.5;entryDx=0;entryDy=0;" parent="1" source="-YGaoJcy0KL_er-XXw0R-10" target="-YGaoJcy0KL_er-XXw0R-12" edge="1">
          <mxGeometry width="50" height="50" relative="1" as="geometry">
            <mxPoint x="260" y="370" as="sourcePoint" />
            <mxPoint x="310" y="320" as="targetPoint" />
          </mxGeometry>
        </mxCell>
        <mxCell id="-YGaoJcy0KL_er-XXw0R-22" value="" style="endArrow=classic;startArrow=classic;html=1;rounded=0;exitX=1;exitY=0.5;exitDx=0;exitDy=0;entryX=0;entryY=0.5;entryDx=0;entryDy=0;" parent="1" source="-YGaoJcy0KL_er-XXw0R-12" target="-YGaoJcy0KL_er-XXw0R-14" edge="1">
          <mxGeometry width="50" height="50" relative="1" as="geometry">
            <mxPoint x="260" y="370" as="sourcePoint" />
            <mxPoint x="310" y="320" as="targetPoint" />
          </mxGeometry>
        </mxCell>
        <mxCell id="-YGaoJcy0KL_er-XXw0R-24" value="Page Buffer" style="swimlane;whiteSpace=wrap;html=1;" parent="1" vertex="1">
          <mxGeometry x="400" y="20" width="150" height="255" as="geometry" />
        </mxCell>
        <mxCell id="-YGaoJcy0KL_er-XXw0R-25" value="" style="rounded=0;whiteSpace=wrap;html=1;" parent="-YGaoJcy0KL_er-XXw0R-24" vertex="1">
          <mxGeometry x="21.5" y="25" width="45" height="40" as="geometry" />
        </mxCell>
        <mxCell id="-YGaoJcy0KL_er-XXw0R-26" value="8kb&lt;br&gt;&amp;nbsp;page" style="text;html=1;strokeColor=none;fillColor=none;align=center;verticalAlign=middle;whiteSpace=wrap;rounded=0;" parent="-YGaoJcy0KL_er-XXw0R-24" vertex="1">
          <mxGeometry x="14" y="30" width="60" height="30" as="geometry" />
        </mxCell>
        <mxCell id="-YGaoJcy0KL_er-XXw0R-27" value="" style="rounded=0;whiteSpace=wrap;html=1;" parent="-YGaoJcy0KL_er-XXw0R-24" vertex="1">
          <mxGeometry x="21.5" y="75" width="45" height="40" as="geometry" />
        </mxCell>
        <mxCell id="-YGaoJcy0KL_er-XXw0R-28" value="8kb&lt;br&gt;&amp;nbsp;page" style="text;html=1;strokeColor=none;fillColor=none;align=center;verticalAlign=middle;whiteSpace=wrap;rounded=0;" parent="-YGaoJcy0KL_er-XXw0R-24" vertex="1">
          <mxGeometry x="14" y="80" width="60" height="30" as="geometry" />
        </mxCell>
        <mxCell id="-YGaoJcy0KL_er-XXw0R-31" value="" style="rounded=0;whiteSpace=wrap;html=1;" parent="-YGaoJcy0KL_er-XXw0R-24" vertex="1">
          <mxGeometry x="21.5" y="120" width="45" height="40" as="geometry" />
        </mxCell>
        <mxCell id="-YGaoJcy0KL_er-XXw0R-32" value="8kb&lt;br&gt;&amp;nbsp;page" style="text;html=1;strokeColor=none;fillColor=none;align=center;verticalAlign=middle;whiteSpace=wrap;rounded=0;" parent="-YGaoJcy0KL_er-XXw0R-24" vertex="1">
          <mxGeometry x="14" y="125" width="60" height="30" as="geometry" />
        </mxCell>
        <mxCell id="-YGaoJcy0KL_er-XXw0R-35" value="" style="rounded=0;whiteSpace=wrap;html=1;" parent="-YGaoJcy0KL_er-XXw0R-24" vertex="1">
          <mxGeometry x="21.5" y="170" width="45" height="40" as="geometry" />
        </mxCell>
        <mxCell id="-YGaoJcy0KL_er-XXw0R-36" value="8kb&lt;br&gt;&amp;nbsp;page" style="text;html=1;strokeColor=none;fillColor=none;align=center;verticalAlign=middle;whiteSpace=wrap;rounded=0;" parent="-YGaoJcy0KL_er-XXw0R-24" vertex="1">
          <mxGeometry x="14" y="175" width="60" height="30" as="geometry" />
        </mxCell>
        <mxCell id="-YGaoJcy0KL_er-XXw0R-29" value="" style="endArrow=none;dashed=1;html=1;rounded=0;entryX=0;entryY=0.25;entryDx=0;entryDy=0;exitX=0.5;exitY=0;exitDx=0;exitDy=0;" parent="1" source="-YGaoJcy0KL_er-XXw0R-2" target="-YGaoJcy0KL_er-XXw0R-26" edge="1">
          <mxGeometry width="50" height="50" relative="1" as="geometry">
            <mxPoint x="310" y="370" as="sourcePoint" />
            <mxPoint x="360" y="320" as="targetPoint" />
          </mxGeometry>
        </mxCell>
        <mxCell id="-YGaoJcy0KL_er-XXw0R-33" value="" style="endArrow=none;dashed=1;html=1;rounded=0;entryX=0;entryY=0.5;entryDx=0;entryDy=0;exitX=1;exitY=0.25;exitDx=0;exitDy=0;" parent="1" source="-YGaoJcy0KL_er-XXw0R-4" target="-YGaoJcy0KL_er-XXw0R-28" edge="1">
          <mxGeometry width="50" height="50" relative="1" as="geometry">
            <mxPoint x="310" y="310" as="sourcePoint" />
            <mxPoint x="360" y="260" as="targetPoint" />
          </mxGeometry>
        </mxCell>
        <mxCell id="-YGaoJcy0KL_er-XXw0R-34" value="" style="endArrow=none;dashed=1;html=1;rounded=0;exitX=1;exitY=0;exitDx=0;exitDy=0;entryX=0;entryY=0.5;entryDx=0;entryDy=0;" parent="1" source="-YGaoJcy0KL_er-XXw0R-8" target="-YGaoJcy0KL_er-XXw0R-32" edge="1">
          <mxGeometry width="50" height="50" relative="1" as="geometry">
            <mxPoint x="310" y="310" as="sourcePoint" />
            <mxPoint x="360" y="260" as="targetPoint" />
          </mxGeometry>
        </mxCell>
        <mxCell id="-YGaoJcy0KL_er-XXw0R-37" value="" style="endArrow=none;dashed=1;html=1;rounded=0;entryX=0;entryY=0.5;entryDx=0;entryDy=0;exitX=1;exitY=0;exitDx=0;exitDy=0;" parent="1" source="-YGaoJcy0KL_er-XXw0R-12" target="-YGaoJcy0KL_er-XXw0R-36" edge="1">
          <mxGeometry width="50" height="50" relative="1" as="geometry">
            <mxPoint x="310" y="310" as="sourcePoint" />
            <mxPoint x="360" y="260" as="targetPoint" />
          </mxGeometry>
        </mxCell>
        <mxCell id="-YGaoJcy0KL_er-XXw0R-38" value="File On Disk" style="swimlane;whiteSpace=wrap;html=1;" parent="1" vertex="1">
          <mxGeometry x="400" y="299" width="100" height="141" as="geometry" />
        </mxCell>
        <mxCell id="-YGaoJcy0KL_er-XXw0R-39" value="" style="rounded=0;whiteSpace=wrap;html=1;" parent="-YGaoJcy0KL_er-XXw0R-38" vertex="1">
          <mxGeometry y="23" width="100" height="40" as="geometry" />
        </mxCell>
        <mxCell id="-YGaoJcy0KL_er-XXw0R-40" value="8kb&lt;br&gt;&amp;nbsp;page" style="text;html=1;strokeColor=none;fillColor=none;align=center;verticalAlign=middle;whiteSpace=wrap;rounded=0;" parent="-YGaoJcy0KL_er-XXw0R-38" vertex="1">
          <mxGeometry x="21" y="30" width="60" height="30" as="geometry" />
        </mxCell>
        <mxCell id="-YGaoJcy0KL_er-XXw0R-47" value="" style="rounded=0;whiteSpace=wrap;html=1;" parent="-YGaoJcy0KL_er-XXw0R-38" vertex="1">
          <mxGeometry y="63" width="100" height="40" as="geometry" />
        </mxCell>
        <mxCell id="-YGaoJcy0KL_er-XXw0R-48" value="8kb&lt;br&gt;&amp;nbsp;page" style="text;html=1;strokeColor=none;fillColor=none;align=center;verticalAlign=middle;whiteSpace=wrap;rounded=0;" parent="-YGaoJcy0KL_er-XXw0R-38" vertex="1">
          <mxGeometry x="21" y="70" width="60" height="30" as="geometry" />
        </mxCell>
        <mxCell id="-YGaoJcy0KL_er-XXw0R-49" value="" style="rounded=0;whiteSpace=wrap;html=1;" parent="-YGaoJcy0KL_er-XXw0R-38" vertex="1">
          <mxGeometry y="103" width="100" height="40" as="geometry" />
        </mxCell>
        <mxCell id="-YGaoJcy0KL_er-XXw0R-50" value="8kb&lt;br&gt;&amp;nbsp;page" style="text;html=1;strokeColor=none;fillColor=none;align=center;verticalAlign=middle;whiteSpace=wrap;rounded=0;" parent="-YGaoJcy0KL_er-XXw0R-38" vertex="1">
          <mxGeometry x="21" y="110" width="60" height="30" as="geometry" />
        </mxCell>
        <mxCell id="-YGaoJcy0KL_er-XXw0R-52" value="" style="endArrow=none;dashed=1;html=1;dashPattern=1 3;strokeWidth=2;rounded=0;entryX=-0.042;entryY=0.479;entryDx=0;entryDy=0;entryPerimeter=0;exitX=1;exitY=1;exitDx=0;exitDy=0;" parent="1" source="-YGaoJcy0KL_er-XXw0R-6" target="-YGaoJcy0KL_er-XXw0R-39" edge="1">
          <mxGeometry width="50" height="50" relative="1" as="geometry">
            <mxPoint x="310" y="470" as="sourcePoint" />
            <mxPoint x="360" y="420" as="targetPoint" />
          </mxGeometry>
        </mxCell>
        <mxCell id="-YGaoJcy0KL_er-XXw0R-53" value="" style="endArrow=none;dashed=1;html=1;dashPattern=1 3;strokeWidth=2;rounded=0;entryX=-0.049;entryY=0.462;entryDx=0;entryDy=0;entryPerimeter=0;exitX=1;exitY=0.75;exitDx=0;exitDy=0;" parent="1" source="-YGaoJcy0KL_er-XXw0R-14" target="-YGaoJcy0KL_er-XXw0R-47" edge="1">
          <mxGeometry width="50" height="50" relative="1" as="geometry">
            <mxPoint x="310" y="390" as="sourcePoint" />
            <mxPoint x="360" y="340" as="targetPoint" />
          </mxGeometry>
        </mxCell>
        <mxCell id="-YGaoJcy0KL_er-XXw0R-54" value="" style="endArrow=none;dashed=1;html=1;dashPattern=1 3;strokeWidth=2;rounded=0;entryX=0;entryY=0.5;entryDx=0;entryDy=0;exitX=0.5;exitY=1;exitDx=0;exitDy=0;" parent="1" source="-YGaoJcy0KL_er-XXw0R-12" target="-YGaoJcy0KL_er-XXw0R-49" edge="1">
          <mxGeometry width="50" height="50" relative="1" as="geometry">
            <mxPoint x="310" y="390" as="sourcePoint" />
            <mxPoint x="360" y="340" as="targetPoint" />
          </mxGeometry>
        </mxCell>
        <mxCell id="-YGaoJcy0KL_er-XXw0R-55" value="" style="rounded=0;whiteSpace=wrap;html=1;" parent="1" vertex="1">
          <mxGeometry x="400" y="440" width="100" height="40" as="geometry" />
        </mxCell>
        <mxCell id="-YGaoJcy0KL_er-XXw0R-56" value="8kb&lt;br&gt;&amp;nbsp;page" style="text;html=1;strokeColor=none;fillColor=none;align=center;verticalAlign=middle;whiteSpace=wrap;rounded=0;" parent="1" vertex="1">
          <mxGeometry x="421" y="447" width="60" height="30" as="geometry" />
        </mxCell>
        <mxCell id="-YGaoJcy0KL_er-XXw0R-57" value="" style="endArrow=none;dashed=1;html=1;dashPattern=1 3;strokeWidth=2;rounded=0;exitX=0.5;exitY=1;exitDx=0;exitDy=0;entryX=0;entryY=0.5;entryDx=0;entryDy=0;" parent="1" source="-YGaoJcy0KL_er-XXw0R-10" target="-YGaoJcy0KL_er-XXw0R-55" edge="1">
          <mxGeometry width="50" height="50" relative="1" as="geometry">
            <mxPoint x="310" y="390" as="sourcePoint" />
            <mxPoint x="360" y="340" as="targetPoint" />
          </mxGeometry>
        </mxCell>
        <mxCell id="-YGaoJcy0KL_er-XXw0R-58" value="" style="rounded=0;whiteSpace=wrap;html=1;" parent="1" vertex="1">
          <mxGeometry x="400" y="480" width="100" height="40" as="geometry" />
        </mxCell>
        <mxCell id="-YGaoJcy0KL_er-XXw0R-59" value="8kb&lt;br&gt;&amp;nbsp;page" style="text;html=1;strokeColor=none;fillColor=none;align=center;verticalAlign=middle;whiteSpace=wrap;rounded=0;" parent="1" vertex="1">
          <mxGeometry x="421" y="487" width="60" height="30" as="geometry" />
        </mxCell>
        <mxCell id="-YGaoJcy0KL_er-XXw0R-60" value="" style="rounded=0;whiteSpace=wrap;html=1;" parent="1" vertex="1">
          <mxGeometry x="400" y="520" width="100" height="40" as="geometry" />
        </mxCell>
        <mxCell id="-YGaoJcy0KL_er-XXw0R-61" value="8kb&lt;br&gt;&amp;nbsp;page" style="text;html=1;strokeColor=none;fillColor=none;align=center;verticalAlign=middle;whiteSpace=wrap;rounded=0;" parent="1" vertex="1">
          <mxGeometry x="421" y="527" width="60" height="30" as="geometry" />
        </mxCell>
        <mxCell id="-YGaoJcy0KL_er-XXw0R-62" value="" style="rounded=0;whiteSpace=wrap;html=1;" parent="1" vertex="1">
          <mxGeometry x="400" y="560" width="100" height="40" as="geometry" />
        </mxCell>
        <mxCell id="-YGaoJcy0KL_er-XXw0R-63" value="8kb&lt;br&gt;&amp;nbsp;page" style="text;html=1;strokeColor=none;fillColor=none;align=center;verticalAlign=middle;whiteSpace=wrap;rounded=0;" parent="1" vertex="1">
          <mxGeometry x="421" y="567" width="60" height="30" as="geometry" />
        </mxCell>
        <mxCell id="-YGaoJcy0KL_er-XXw0R-64" value="" style="rounded=0;whiteSpace=wrap;html=1;" parent="1" vertex="1">
          <mxGeometry x="400" y="598" width="100" height="40" as="geometry" />
        </mxCell>
        <mxCell id="-YGaoJcy0KL_er-XXw0R-65" value="8kb&lt;br&gt;&amp;nbsp;page" style="text;html=1;strokeColor=none;fillColor=none;align=center;verticalAlign=middle;whiteSpace=wrap;rounded=0;" parent="1" vertex="1">
          <mxGeometry x="421" y="605" width="60" height="30" as="geometry" />
        </mxCell>
        <mxCell id="-YGaoJcy0KL_er-XXw0R-67" value="" style="curved=1;endArrow=classic;html=1;rounded=0;exitX=1;exitY=0.5;exitDx=0;exitDy=0;entryX=1;entryY=0.5;entryDx=0;entryDy=0;" parent="1" source="-YGaoJcy0KL_er-XXw0R-36" target="-YGaoJcy0KL_er-XXw0R-58" edge="1">
          <mxGeometry width="50" height="50" relative="1" as="geometry">
            <mxPoint x="560" y="390" as="sourcePoint" />
            <mxPoint x="610" y="340" as="targetPoint" />
            <Array as="points">
              <mxPoint x="520" y="300" />
              <mxPoint x="540" y="340" />
            </Array>
          </mxGeometry>
        </mxCell>
        <mxCell id="-YGaoJcy0KL_er-XXw0R-68" value="" style="curved=1;endArrow=classic;html=1;rounded=0;exitX=1;exitY=0.5;exitDx=0;exitDy=0;entryX=1;entryY=0.5;entryDx=0;entryDy=0;" parent="1" source="-YGaoJcy0KL_er-XXw0R-32" target="-YGaoJcy0KL_er-XXw0R-60" edge="1">
          <mxGeometry width="50" height="50" relative="1" as="geometry">
            <mxPoint x="510" y="210" as="sourcePoint" />
            <mxPoint x="536" y="500" as="targetPoint" />
            <Array as="points">
              <mxPoint x="556" y="300" />
              <mxPoint x="576" y="340" />
            </Array>
          </mxGeometry>
        </mxCell>
        <mxCell id="-YGaoJcy0KL_er-XXw0R-69" value="" style="curved=1;endArrow=classic;html=1;rounded=0;exitX=1;exitY=0.5;exitDx=0;exitDy=0;entryX=1;entryY=0.5;entryDx=0;entryDy=0;" parent="1" source="-YGaoJcy0KL_er-XXw0R-28" target="-YGaoJcy0KL_er-XXw0R-62" edge="1">
          <mxGeometry width="50" height="50" relative="1" as="geometry">
            <mxPoint x="500" y="147" as="sourcePoint" />
            <mxPoint x="526" y="527" as="targetPoint" />
            <Array as="points">
              <mxPoint x="582" y="287" />
              <mxPoint x="602" y="327" />
            </Array>
          </mxGeometry>
        </mxCell>
        <mxCell id="-YGaoJcy0KL_er-XXw0R-70" value="" style="curved=1;endArrow=classic;html=1;rounded=0;exitX=1;exitY=0.5;exitDx=0;exitDy=0;entryX=1;entryY=0.5;entryDx=0;entryDy=0;" parent="1" source="-YGaoJcy0KL_er-XXw0R-26" target="-YGaoJcy0KL_er-XXw0R-64" edge="1">
          <mxGeometry width="50" height="50" relative="1" as="geometry">
            <mxPoint x="510" y="102" as="sourcePoint" />
            <mxPoint x="536" y="567" as="targetPoint" />
            <Array as="points">
              <mxPoint x="618" y="274" />
              <mxPoint x="638" y="314" />
            </Array>
          </mxGeometry>
        </mxCell>
        <mxCell id="-YGaoJcy0KL_er-XXw0R-71" value="Free page manager" style="swimlane;fontStyle=0;childLayout=stackLayout;horizontal=1;startSize=30;horizontalStack=0;resizeParent=1;resizeParentMax=0;resizeLast=0;collapsible=1;marginBottom=0;whiteSpace=wrap;html=1;" parent="1" vertex="1">
          <mxGeometry x="60" y="406" width="100" height="240" as="geometry" />
        </mxCell>
        <mxCell id="-YGaoJcy0KL_er-XXw0R-72" value="is full" style="text;strokeColor=none;fillColor=none;align=left;verticalAlign=middle;spacingLeft=4;spacingRight=4;overflow=hidden;points=[[0,0.5],[1,0.5]];portConstraint=eastwest;rotatable=0;whiteSpace=wrap;html=1;" parent="-YGaoJcy0KL_er-XXw0R-71" vertex="1">
          <mxGeometry y="30" width="100" height="30" as="geometry" />
        </mxCell>
        <mxCell id="-YGaoJcy0KL_er-XXw0R-73" value="is free" style="text;strokeColor=none;fillColor=none;align=left;verticalAlign=middle;spacingLeft=4;spacingRight=4;overflow=hidden;points=[[0,0.5],[1,0.5]];portConstraint=eastwest;rotatable=0;whiteSpace=wrap;html=1;" parent="-YGaoJcy0KL_er-XXw0R-71" vertex="1">
          <mxGeometry y="60" width="100" height="30" as="geometry" />
        </mxCell>
        <mxCell id="-YGaoJcy0KL_er-XXw0R-74" value="is free" style="text;strokeColor=none;fillColor=none;align=left;verticalAlign=middle;spacingLeft=4;spacingRight=4;overflow=hidden;points=[[0,0.5],[1,0.5]];portConstraint=eastwest;rotatable=0;whiteSpace=wrap;html=1;" parent="-YGaoJcy0KL_er-XXw0R-71" vertex="1">
          <mxGeometry y="90" width="100" height="30" as="geometry" />
        </mxCell>
        <mxCell id="-YGaoJcy0KL_er-XXw0R-80" value="is free" style="text;strokeColor=none;fillColor=none;align=left;verticalAlign=middle;spacingLeft=4;spacingRight=4;overflow=hidden;points=[[0,0.5],[1,0.5]];portConstraint=eastwest;rotatable=0;whiteSpace=wrap;html=1;" parent="-YGaoJcy0KL_er-XXw0R-71" vertex="1">
          <mxGeometry y="120" width="100" height="30" as="geometry" />
        </mxCell>
        <mxCell id="-YGaoJcy0KL_er-XXw0R-79" value="is full" style="text;strokeColor=none;fillColor=none;align=left;verticalAlign=middle;spacingLeft=4;spacingRight=4;overflow=hidden;points=[[0,0.5],[1,0.5]];portConstraint=eastwest;rotatable=0;whiteSpace=wrap;html=1;" parent="-YGaoJcy0KL_er-XXw0R-71" vertex="1">
          <mxGeometry y="150" width="100" height="30" as="geometry" />
        </mxCell>
        <mxCell id="-YGaoJcy0KL_er-XXw0R-78" value="is full" style="text;strokeColor=none;fillColor=none;align=left;verticalAlign=middle;spacingLeft=4;spacingRight=4;overflow=hidden;points=[[0,0.5],[1,0.5]];portConstraint=eastwest;rotatable=0;whiteSpace=wrap;html=1;" parent="-YGaoJcy0KL_er-XXw0R-71" vertex="1">
          <mxGeometry y="180" width="100" height="30" as="geometry" />
        </mxCell>
        <mxCell id="-YGaoJcy0KL_er-XXw0R-84" value="" style="endArrow=none;dashed=1;html=1;dashPattern=1 3;strokeWidth=2;rounded=0;" parent="-YGaoJcy0KL_er-XXw0R-71" edge="1">
          <mxGeometry width="50" height="50" relative="1" as="geometry">
            <mxPoint x="20" y="220" as="sourcePoint" />
            <mxPoint x="80" y="220" as="targetPoint" />
          </mxGeometry>
        </mxCell>
        <mxCell id="-YGaoJcy0KL_er-XXw0R-85" style="text;strokeColor=none;fillColor=none;align=left;verticalAlign=middle;spacingLeft=4;spacingRight=4;overflow=hidden;points=[[0,0.5],[1,0.5]];portConstraint=eastwest;rotatable=0;whiteSpace=wrap;html=1;" parent="-YGaoJcy0KL_er-XXw0R-71" vertex="1">
          <mxGeometry y="210" width="100" height="30" as="geometry" />
        </mxCell>
        <mxCell id="-YGaoJcy0KL_er-XXw0R-75" value="" style="endArrow=classic;html=1;rounded=0;exitX=1;exitY=0.5;exitDx=0;exitDy=0;entryX=-0.021;entryY=0.634;entryDx=0;entryDy=0;entryPerimeter=0;" parent="1" source="-YGaoJcy0KL_er-XXw0R-72" target="-YGaoJcy0KL_er-XXw0R-39" edge="1">
          <mxGeometry width="50" height="50" relative="1" as="geometry">
            <mxPoint x="310" y="430" as="sourcePoint" />
            <mxPoint x="360" y="380" as="targetPoint" />
          </mxGeometry>
        </mxCell>
        <mxCell id="-YGaoJcy0KL_er-XXw0R-76" value="" style="endArrow=classic;html=1;rounded=0;exitX=1.034;exitY=0.246;exitDx=0;exitDy=0;exitPerimeter=0;entryX=0;entryY=0.5;entryDx=0;entryDy=0;" parent="1" source="-YGaoJcy0KL_er-XXw0R-73" target="-YGaoJcy0KL_er-XXw0R-47" edge="1">
          <mxGeometry width="50" height="50" relative="1" as="geometry">
            <mxPoint x="310" y="450" as="sourcePoint" />
            <mxPoint x="360" y="400" as="targetPoint" />
          </mxGeometry>
        </mxCell>
        <mxCell id="-YGaoJcy0KL_er-XXw0R-77" value="" style="endArrow=classic;html=1;rounded=0;exitX=1;exitY=0.5;exitDx=0;exitDy=0;entryX=0;entryY=0.5;entryDx=0;entryDy=0;" parent="1" source="-YGaoJcy0KL_er-XXw0R-74" target="-YGaoJcy0KL_er-XXw0R-49" edge="1">
          <mxGeometry width="50" height="50" relative="1" as="geometry">
            <mxPoint x="310" y="450" as="sourcePoint" />
            <mxPoint x="360" y="400" as="targetPoint" />
          </mxGeometry>
        </mxCell>
        <mxCell id="-YGaoJcy0KL_er-XXw0R-81" value="" style="endArrow=classic;html=1;rounded=0;entryX=0;entryY=0.5;entryDx=0;entryDy=0;exitX=1;exitY=0.5;exitDx=0;exitDy=0;" parent="1" source="-YGaoJcy0KL_er-XXw0R-80" target="-YGaoJcy0KL_er-XXw0R-55" edge="1">
          <mxGeometry width="50" height="50" relative="1" as="geometry">
            <mxPoint x="310" y="530" as="sourcePoint" />
            <mxPoint x="360" y="480" as="targetPoint" />
          </mxGeometry>
        </mxCell>
        <mxCell id="-YGaoJcy0KL_er-XXw0R-82" value="" style="endArrow=classic;html=1;rounded=0;exitX=1;exitY=0.5;exitDx=0;exitDy=0;entryX=0;entryY=0.5;entryDx=0;entryDy=0;" parent="1" source="-YGaoJcy0KL_er-XXw0R-79" target="-YGaoJcy0KL_er-XXw0R-58" edge="1">
          <mxGeometry width="50" height="50" relative="1" as="geometry">
            <mxPoint x="310" y="530" as="sourcePoint" />
            <mxPoint x="360" y="480" as="targetPoint" />
          </mxGeometry>
        </mxCell>
        <mxCell id="-YGaoJcy0KL_er-XXw0R-83" value="" style="endArrow=classic;html=1;rounded=0;entryX=0;entryY=0.5;entryDx=0;entryDy=0;exitX=1.007;exitY=0.292;exitDx=0;exitDy=0;exitPerimeter=0;" parent="1" source="-YGaoJcy0KL_er-XXw0R-78" target="-YGaoJcy0KL_er-XXw0R-60" edge="1">
          <mxGeometry width="50" height="50" relative="1" as="geometry">
            <mxPoint x="310" y="530" as="sourcePoint" />
            <mxPoint x="360" y="480" as="targetPoint" />
          </mxGeometry>
        </mxCell>
        <mxCell id="-YGaoJcy0KL_er-XXw0R-86" value="" style="rounded=0;whiteSpace=wrap;html=1;" parent="1" vertex="1">
          <mxGeometry x="400" y="638" width="100" height="40" as="geometry" />
        </mxCell>
        <mxCell id="-YGaoJcy0KL_er-XXw0R-87" value="" style="endArrow=none;dashed=1;html=1;dashPattern=1 3;strokeWidth=2;rounded=0;" parent="1" edge="1">
          <mxGeometry width="50" height="50" relative="1" as="geometry">
            <mxPoint x="426" y="657.66" as="sourcePoint" />
            <mxPoint x="476" y="657.66" as="targetPoint" />
          </mxGeometry>
        </mxCell>
        <mxCell id="-YGaoJcy0KL_er-XXw0R-90" value="Bplus Tree" style="text;html=1;strokeColor=none;fillColor=none;align=center;verticalAlign=middle;whiteSpace=wrap;rounded=0;" parent="1" vertex="1">
          <mxGeometry x="180" y="100" width="60" height="30" as="geometry" />
        </mxCell>
        <mxCell id="QxfgbEv39Dxshz6ssJbI-1" value="" style="endArrow=classic;html=1;rounded=0;" edge="1" parent="1">
          <mxGeometry width="50" height="50" relative="1" as="geometry">
            <mxPoint x="30" y="140" as="sourcePoint" />
            <mxPoint x="150" y="140" as="targetPoint" />
          </mxGeometry>
        </mxCell>
        <mxCell id="QxfgbEv39Dxshz6ssJbI-2" value="request" style="text;html=1;strokeColor=none;fillColor=none;align=center;verticalAlign=middle;whiteSpace=wrap;rounded=0;" vertex="1" parent="1">
          <mxGeometry x="50" y="100" width="60" height="30" as="geometry" />
        </mxCell>
        <mxCell id="QxfgbEv39Dxshz6ssJbI-3" value="" style="verticalLabelPosition=bottom;sketch=0;aspect=fixed;html=1;verticalAlign=top;strokeColor=none;align=center;outlineConnect=0;shape=mxgraph.citrix.process;" vertex="1" parent="1">
          <mxGeometry x="579.16" y="98" width="26.84" height="32" as="geometry" />
        </mxCell>
        <mxCell id="QxfgbEv39Dxshz6ssJbI-4" value="periodic flush to disk" style="text;html=1;strokeColor=none;fillColor=none;align=center;verticalAlign=middle;whiteSpace=wrap;rounded=0;" vertex="1" parent="1">
          <mxGeometry x="566" y="140" width="60" height="30" as="geometry" />
        </mxCell>
        <mxCell id="QxfgbEv39Dxshz6ssJbI-5" value="" style="verticalLabelPosition=bottom;sketch=0;aspect=fixed;html=1;verticalAlign=top;strokeColor=none;align=center;outlineConnect=0;shape=mxgraph.citrix.process;" vertex="1" parent="1">
          <mxGeometry x="566" y="585" width="23.48" height="28" as="geometry" />
        </mxCell>
        <mxCell id="QxfgbEv39Dxshz6ssJbI-6" value="periodic compaction" style="text;html=1;strokeColor=none;fillColor=none;align=center;verticalAlign=middle;whiteSpace=wrap;rounded=0;" vertex="1" parent="1">
          <mxGeometry x="550" y="616" width="60" height="30" as="geometry" />
        </mxCell>
      </root>
    </mxGraphModel>
  </diagram>
</mxfile>
